<svg width="839" height="640" viewBox="0 0 839 640" fill="none" xmlns="http://www.w3.org/2000/svg">
<g id="people">
<path d="M0 70C0 31.3401 31.3401 0 70 0H769C807.66 0 839 31.3401 839 70V590C839 617.614 816.614 640 789 640H50C22.3858 640 0 617.614 0 590V70Z" fill="white"/>
<g id="person-3">
<path id="Vector" d="M638.913 89.8121C631.397 62.4104 692.015 38.913 707.934 60.9796C710.147 57.8424 718.327 55.9368 722.081 56.8992C725.834 57.8615 728.99 60.2674 732.07 62.5964C736.304 65.8492 740.693 69.2175 743.291 73.8945C745.909 78.5524 746.313 84.904 742.791 88.9459C740 92.1602 731.762 94.2389 727.566 95.0858C724.64 95.6825 722.177 96.1637 720.06 96.5101C718.136 93.7394 717.251 90.3799 717.557 87.0212C716.132 87.9825 714.938 89.2472 714.059 90.7247C713.181 92.2023 712.64 93.8559 712.476 95.567C712.418 96.2791 736.131 183.527 736.131 183.527C733.282 185.149 730.285 186.495 727.181 187.55C721.04 178.165 716.337 167.915 713.227 157.139C712.512 164.344 712.602 171.607 713.496 178.792C713.972 182.821 714.653 186.824 715.536 190.783C687.358 196.865 644.976 194.864 626.537 168.995C626.534 168.888 626.531 168.781 626.528 168.674C626.513 167.653 626.144 166.669 625.484 165.89C624.824 165.111 623.913 164.586 622.908 164.404C621.903 164.223 620.867 164.396 619.976 164.895C619.085 165.394 618.395 166.187 618.024 167.139C617.577 168.28 617.165 169.268 616.798 170.054C611.428 150.845 618.376 128.615 638.913 89.8121Z" fill="#2F2E41"/>
<path id="Vector_2" d="M821.791 639H718.504C717.031 637.824 716.007 636.177 715.604 634.335C715.201 632.493 715.445 630.569 716.293 628.885C719.115 622.414 713.585 616.501 713.585 616.501C711.709 614.302 710.404 611.673 709.786 608.849C709.169 606.025 709.258 603.091 710.046 600.31C712.782 590.752 702.058 563.775 702.058 563.775C702.058 563.775 696.277 598.609 689.193 639H590.963C589.317 636.197 588.45 633.006 588.45 629.755C588.45 626.505 589.317 623.314 590.963 620.511C596.687 610.805 590.963 608.943 590.963 608.943C590.963 608.943 585.238 598.081 590.963 590.195C596.687 582.309 590.963 550.107 590.963 550.107C591.179 551.53 592.809 548.942 595.32 543.514C599.143 535.257 604.985 520.406 610.887 503.166C615.106 490.862 619.36 477.323 622.915 464.087H622.924C623.856 460.609 624.739 457.164 625.573 453.749C627.204 447.054 628.601 440.547 629.663 434.438C631.967 421.28 632.726 409.976 630.957 402.624C629.49 396.506 626.28 393.133 620.741 393.711C623.709 393.219 628.058 392.753 633.416 392.313C634.383 392.235 635.384 392.157 636.419 392.071C676.387 389.051 762.14 387.317 762.14 387.317L788.406 434.352L821.67 493.933C821.67 493.933 820.764 573.862 821.791 639Z" fill="#2F2E41"/>
<path id="Vector_3" d="M711.547 184.022L651.033 171.185L639.018 195.37L598.556 218.796C598.556 218.796 624.637 325.437 624.488 340.436C624.111 378.515 563.182 463.876 609.203 457.309C655.224 450.742 664.573 423.236 679.347 427.585C692.671 431.508 708.94 448.957 719.832 436.477C730.724 423.997 734.56 438.409 741.448 438.907C744.721 439.143 742.75 423.148 750.985 439.404C759.22 455.66 802.889 433.777 788.089 418.977C763.439 394.327 758.429 212.615 758.429 212.615L730.988 204.172L711.547 184.022Z" fill="#FFA500"/>
<path id="Vector_4" d="M597.411 571.297C599.843 568.398 601.047 564.665 600.767 560.891C600.488 557.117 598.747 553.602 595.915 551.092C595.332 550.591 594.707 550.139 594.049 549.741L604.167 500.085L580.777 486.086L574.271 555.607C572.832 558.464 572.379 561.718 572.983 564.859C573.587 568.001 575.214 570.854 577.61 572.974C578.985 574.167 580.581 575.078 582.308 575.654C584.035 576.23 585.859 576.46 587.675 576.331C589.491 576.203 591.263 575.718 592.892 574.904C594.52 574.09 595.973 572.964 597.166 571.589C597.249 571.493 597.331 571.396 597.411 571.297Z" fill="#A0616A"/>
<path id="Vector_5" d="M670.037 309.554C669.89 307.958 667.854 307.233 665.032 306.232C662.198 305.359 659.504 304.084 657.033 302.444C650.786 297.931 653.245 293.212 656.645 286.688C657.309 285.42 658 284.1 658.647 282.728C660.571 278.663 657.508 261.898 649.526 232.888C647.067 223.957 647.076 217.65 645.376 213.465C643.684 209.28 640.293 207.217 631.052 206.786C619.882 206.222 608.944 210.11 600.636 217.598C600.411 217.796 600.178 218.012 599.954 218.219C599.531 218.616 599.117 219.022 598.711 219.436C591.028 227.165 586.632 237.566 586.441 248.463L586.398 250.318L584.491 338.952L579.133 416.732L571.747 523.875L577.217 524.143L599.048 525.23L601.697 525.359L607.979 499.007L615.537 467.296L618.316 455.648L626.936 419.51L630.957 402.624L633.416 392.313L634.417 388.102L639.301 367.634C639.413 367.203 650.648 322.877 663.6 315.465C668.432 312.704 670.175 311.099 670.037 309.554Z" fill="#FFA500"/>
<path id="Vector_6" d="M815.355 570.769C812.626 568.148 811.028 564.565 810.9 560.784C810.773 557.002 812.126 553.32 814.672 550.52C815.199 549.959 815.771 549.443 816.382 548.977L800.99 500.694L822.741 484.264L836.676 552.685C838.414 555.371 839.214 558.556 838.951 561.745C838.688 564.933 837.376 567.945 835.222 570.31C833.983 571.643 832.493 572.72 830.838 573.479C829.183 574.237 827.395 574.661 825.576 574.729C823.756 574.796 821.942 574.504 820.235 573.87C818.529 573.235 816.964 572.271 815.63 571.032C815.537 570.946 815.445 570.858 815.355 570.769Z" fill="#A0616A"/>
<path id="Vector_7" d="M825.996 466.002C825.996 466.002 809.031 406.314 814.205 399.852C819.378 393.391 804.098 392.129 810.683 380.095C817.268 368.061 808.179 366.048 808.179 366.048L803.247 338.379L794.431 270.418L794.163 268.397L791.599 248.625C790.882 242.977 789.035 237.532 786.166 232.615C783.297 227.698 779.466 223.411 774.903 220.008C774.67 219.829 774.432 219.658 774.193 219.487C773.108 218.705 771.999 217.981 770.866 217.315C762.403 212.322 752.464 210.434 742.76 211.976C724.474 214.824 730.165 221.643 727.199 239.911C722.38 269.614 721.13 286.608 723.48 290.447C724.271 291.74 725.103 292.977 725.896 294.165C729.979 300.294 732.931 304.715 727.201 309.883C724.918 311.771 722.377 313.326 719.657 314.499C716.963 315.803 715.014 316.739 715.04 318.342C715.07 319.894 716.974 321.297 722.071 323.521C728.248 326.224 734.883 336.444 740.317 346.884C744.628 355.299 748.473 363.945 751.835 372.783L798.54 504.139L806.158 525.561L808.785 525.145L830.365 521.724L835.777 520.867L825.996 466.002Z" fill="#FFA500"/>
<path id="Vector_8" d="M686.016 170.278C713.282 170.278 735.386 148.174 735.386 120.908C735.386 93.6415 713.282 71.5377 686.016 71.5377C658.75 71.5377 636.646 93.6415 636.646 120.908C636.646 148.174 658.75 170.278 686.016 170.278Z" fill="#A0616A"/>
<path id="Vector_9" d="M611.967 93.6615C604.451 66.2599 665.069 42.7625 680.987 64.829C683.201 61.6918 691.381 59.7863 695.134 60.7486C698.888 61.711 702.044 64.1169 705.124 66.4459C709.358 69.6987 713.746 73.0669 716.345 77.744C718.962 82.4018 719.367 88.7535 715.844 92.7954C713.053 96.0096 704.816 98.0884 700.62 98.9353C697.694 99.5319 695.231 100.013 693.113 100.36C691.19 97.5889 690.304 94.2294 690.611 90.8707C689.186 91.8319 687.991 93.0967 687.113 94.5742C686.234 96.0517 685.694 97.7053 685.53 99.4164C685.472 100.129 709.185 187.377 709.185 187.377C706.336 188.998 703.339 190.345 700.235 191.399C694.094 182.014 689.391 171.764 686.281 160.988C685.566 168.194 685.656 175.456 686.55 182.642C687.025 186.671 687.706 190.673 688.59 194.633C660.412 200.715 618.03 198.713 599.591 172.845C599.588 172.738 599.584 172.631 599.582 172.524C599.567 171.502 599.198 170.518 598.538 169.739C597.878 168.96 596.967 168.435 595.962 168.254C594.957 168.072 593.92 168.246 593.029 168.745C592.138 169.244 591.449 170.037 591.078 170.989C590.631 172.13 590.219 173.118 589.852 173.903C584.482 154.695 591.43 132.464 611.967 93.6615Z" fill="#2F2E41"/>
</g>
<g id="person-1">
<path id="Vector_10" d="M178.516 60.9806C177.599 63.1185 149.312 62.8894 148.016 64.7931C138.028 79.4902 174.035 142.023 164.046 156.739L162.655 158.397C165.913 156.895 169.044 155.129 172.014 153.117C172.281 147.093 172.548 141.05 172.834 135.027C175.826 138.854 178.241 143.099 180.001 147.627C182.327 145.988 184.235 142.949 194.203 136.971C198.238 132.538 202.891 128.709 208.017 125.6L178.516 60.9806Z" fill="#2F2E41"/>
<path id="Vector_11" d="M199.057 181.431C195.935 179.398 192.374 178.138 188.668 177.757C184.962 177.375 181.219 177.883 177.748 179.238C174.278 180.593 171.181 182.756 168.714 185.548C166.247 188.339 164.481 191.679 163.564 195.289L120.578 307.293L46.69 265.345C46.3656 260.523 44.5225 255.928 41.4251 252.219C38.3277 248.509 34.1351 245.876 29.4487 244.697C24.7622 243.518 19.8227 243.853 15.3385 245.654C10.8544 247.456 7.05591 250.631 4.48799 254.725C1.92006 258.819 0.714589 263.621 1.04446 268.442C1.37433 273.263 3.22261 277.856 6.32418 281.562C9.42576 285.268 13.6213 287.897 18.3091 289.071C22.9968 290.245 27.936 289.904 32.4181 288.097C47.9782 304.704 115.437 372.794 143.365 346.19C166.839 323.828 200.715 237.16 208.87 207.233C210.176 202.447 209.93 197.37 208.166 192.733C206.403 188.097 203.213 184.139 199.057 181.431V181.431Z" fill="#FFB6B6"/>
<path id="Vector_12" d="M118.341 350.883L131.906 412.195L231.098 421.167L240.214 367.781L118.341 350.883Z" fill="#FFB6B6"/>
<path id="Vector_13" d="M269.858 508.11C269.813 508.989 269.759 509.859 269.695 510.738C268.744 523.442 267.657 538.094 266.479 554.15C264.621 579.631 262.546 608.645 260.453 639H52.397L92.7473 517.718C92.7473 517.718 109.04 508.748 100.745 493.679C92.4503 478.61 108.771 490.619 108.923 469.098C109.075 447.578 123.7 424.683 123.7 424.683L126.101 392.098L127.47 392.126L235.743 393.929L237.718 393.965L241.044 421.937C261.235 445.964 271.536 476.77 269.858 508.11V508.11Z" fill="#2F2E41"/>
<path id="Vector_14" d="M180.25 151.718L229.623 149.174L252.555 185.41C252.555 185.41 295.702 192.624 292.712 243.468C289.721 294.312 240.214 338.928 240.214 338.928L242.33 331.673L238.655 342.175L239.126 348.072L244.14 354.317L244.656 360.775L240.214 370.994C240.792 371.919 241.098 372.989 241.099 374.08C241.1 375.172 240.794 376.241 240.218 377.168C239.641 378.095 238.817 378.841 237.838 379.323C236.858 379.805 235.764 380.003 234.678 379.894L163.338 372.744C161.714 368.276 160.411 362.931 153.9 371.83L147.18 371.179L119.244 368.472L117.599 362.482C116.665 359.079 116.519 355.507 117.173 352.039C117.828 348.57 119.264 345.297 121.374 342.468V342.468C118.948 334.869 119.583 326.624 123.146 319.487L123.279 319.219L126.246 316.746C126.246 316.746 93.7893 267.985 131.049 231.258L146.003 205.836L162.735 185.422L180.25 151.718Z" fill="#FA5F1A"/>
<path id="Vector_15" d="M192.538 130.328C218.395 130.328 239.357 109.366 239.357 83.5089C239.357 57.6516 218.395 36.6901 192.538 36.6901C166.681 36.6901 145.719 57.6516 145.719 83.5089C145.719 109.366 166.681 130.328 192.538 130.328Z" fill="#FFB6B6"/>
<path id="Vector_16" d="M228.097 150.955C224.285 147.769 221.631 143.413 220.548 138.564C219.683 144.452 219.909 150.449 221.216 156.254C218.68 158.16 216.221 159.971 213.896 161.611C212.135 157.083 209.72 152.838 206.728 149.01C206.442 155.034 206.176 161.077 205.909 167.101C202.938 169.113 199.808 170.879 196.549 172.381L197.941 170.722C207.929 156.006 182.081 128.919 192.069 114.222C194.872 110.104 182.214 77.5648 172.569 76.097C163.991 74.8008 164.353 77.2789 156.042 79.0898C155.178 75.4902 153.839 72.022 152.058 68.777C152.532 72.3929 152.422 76.0614 151.734 79.6426C148.779 79.7569 146.454 77.8743 143.308 77.3932C123.235 74.3242 125.275 52.6123 130.86 45.7307C136.465 38.8683 155.069 36.8096 163.647 34.5792C164.429 33.8168 166.202 34.2933 166.983 33.5689C183.423 18.5239 205.409 16.0324 225.195 22.7007C246.295 29.8119 259.451 43.5752 266.203 64.7931L268.139 81.7728C269.877 87.2323 267.691 112.635 266.203 118.168C260.417 139.674 248.096 128.938 228.097 150.955Z" fill="#2F2E41"/>
<path id="Vector_17" d="M296.363 372.77L294.52 229.218C294.424 223.136 291.941 217.336 287.606 213.069C283.271 208.802 277.433 206.411 271.35 206.411H271.35C268.204 206.411 265.09 207.052 262.199 208.294C259.308 209.537 256.701 211.355 254.536 213.639C252.371 215.922 250.693 218.622 249.606 221.575C248.518 224.527 248.043 227.67 248.21 230.813L254.696 379.87L254.819 470.609C250.997 472.23 247.765 474.989 245.565 478.51C243.365 482.032 242.302 486.145 242.521 490.292C242.74 494.438 244.23 498.417 246.788 501.687C249.347 504.957 252.851 507.36 256.823 508.57C260.795 509.78 265.043 509.737 268.99 508.449C272.938 507.16 276.392 504.687 278.885 501.367C281.378 498.046 282.789 494.038 282.925 489.888C283.061 485.738 281.916 481.647 279.646 478.17L296.363 372.77Z" fill="#FFB6B6"/>
</g>
<g id="person-2">
<path id="Vector_18" d="M538 558.494C538 558.494 535.15 609.764 533.84 639.004H435.7C433.68 612.394 433 592.844 433 592.844L427.63 639.004H328.43L322.28 553.514L352 479.844C352 479.844 513.06 468.674 528 482.844C542.93 497.004 538 558.494 538 558.494Z" fill="#2F2E41"/>
<path id="Vector_19" d="M451.216 127.206C480.822 127.206 504.823 103.205 504.823 73.5988C504.823 43.9925 480.822 19.9919 451.216 19.9919C421.61 19.9919 397.609 43.9925 397.609 73.5988C397.609 103.205 421.61 127.206 451.216 127.206Z" fill="#FFB6B6"/>
<path id="Vector_20" d="M513.7 56.1799C508.194 58.6906 504.626 76.8743 500.299 72.647C495.971 68.4196 496.26 62.9184 490.425 61.3583C485.713 60.0931 480.642 61.5391 476.345 63.8196C475.577 64.222 474.833 64.6596 474.108 65.0947C473.629 64.7749 473.153 64.474 472.642 64.1963C468.797 62.139 464.31 61.6343 460.105 62.7862C463.428 63.8992 466.317 66.0287 468.364 68.8734C466.925 69.8373 465.468 70.8038 463.978 71.6601C451.528 78.8449 433.812 63.2219 420.707 57.3527C428.915 72.7567 424.873 79.1362 417.746 95.0672L417.5 95.9744C417.905 91.9816 405.549 89.006 406.266 94.6266C406.775 98.6173 410.228 107.487 412.163 111.011C398.384 95.0791 388.968 75.5831 390.955 55.4713C391.388 51.2464 391.257 46.7887 393.436 43.1218C395.618 39.4738 400.166 36.9138 404.189 38.3049C403.848 31.891 405.252 25.5046 408.251 19.8247C411.249 14.1448 415.731 9.38361 421.22 6.04738C426.708 2.71116 432.998 0.924579 439.421 0.87757C445.844 0.83056 452.159 2.52489 457.696 5.78042C462.841 8.79928 467.136 13.0689 471.851 16.7518C476.566 20.4347 482.002 23.6449 487.981 23.9489C491.775 24.1319 495.902 23.2058 499.161 25.1704C502.936 27.45 503.582 32.2228 504.149 36.8153C500.782 37.1473 497.59 38.4755 494.982 40.6303C498.466 40.275 501.973 41.0272 505.004 42.78C505.062 42.8061 505.117 42.8373 505.169 42.8733C507.164 50.4633 506.96 52.1459 513.7 56.1799Z" fill="#2F2E41"/>
<path id="Vector_21" d="M328.668 505.779C374.319 452.344 358.899 384.379 340.781 315.771L344.228 214.418C344.397 209.446 345.76 204.588 348.202 200.254C350.644 195.919 354.093 192.237 358.257 189.516L404.861 159.07L423 132.844L473 137.844L500.727 167.166L531.417 190.596C539.123 196.479 544.986 204.442 548.316 213.547C551.645 222.652 552.302 232.52 550.209 241.986L520.839 374.806C520.839 374.806 533.123 443.661 525.628 451.266C518.133 458.87 498.82 451.27 514.135 459.806C532.515 470.051 549.227 468.16 539.926 477.462C530.624 486.763 542.396 499.694 542.396 499.694L328.668 505.779Z" fill="#6C63FF"/>
<path id="Vector_22" d="M348.186 583.438L355.796 529.218L325.429 520.549L319.422 578.16C316.909 580.465 315.089 583.424 314.165 586.707C313.242 589.989 313.253 593.464 314.196 596.74C315.139 600.017 316.978 602.966 319.505 605.254C322.032 607.543 325.148 609.082 328.501 609.698C331.855 610.313 335.314 609.981 338.489 608.738C341.664 607.495 344.43 605.392 346.475 602.663C348.52 599.935 349.764 596.691 350.066 593.294C350.368 589.898 349.717 586.485 348.186 583.438V583.438Z" fill="#FFB6B6"/>
<path id="Vector_23" d="M406 168.844C406 168.844 319.562 196.977 317.5 217.561C315.439 238.146 316.123 250.747 307 333.117L307.481 555C307.481 555 365.432 567.408 359.489 554.142C353.546 540.876 355.62 534.634 355.62 534.634C355.62 534.634 368.045 529.731 364.934 514.155C361.824 498.578 377.421 421.387 377.421 421.387L387.266 282.948L406 168.844Z" fill="#6C63FF"/>
<path id="Vector_24" d="M512.581 580.567L508.53 525.965L539.399 519.299L541.627 577.18C543.985 579.644 545.608 582.716 546.315 586.052C547.021 589.388 546.784 592.854 545.628 596.062C544.473 599.27 542.445 602.092 539.774 604.211C537.103 606.33 533.893 607.662 530.506 608.057C527.12 608.451 523.69 607.894 520.603 606.446C517.516 604.999 514.893 602.719 513.031 599.863C511.168 597.007 510.14 593.688 510.06 590.279C509.98 586.87 510.853 583.507 512.58 580.567H512.581Z" fill="#FFB6B6"/>
<path id="Vector_25" d="M481.99 163.08C481.99 163.08 566.405 196.803 567.116 217.478C567.827 238.153 566.321 250.683 570.041 333.473L555.058 554.85C555.058 554.85 496.419 563.443 503.216 550.594C510.014 537.745 508.353 531.381 508.353 531.381C508.353 531.381 496.275 525.676 500.397 510.337C504.518 494.997 494 416.951 494 416.951L493.226 278.165L481.99 163.08Z" fill="#6C63FF"/>
</g>
</g>
</svg>
